<svg width="128" height="128" viewBox="0 0 128 128" xmlns="http://www.w3.org/2000/svg">
  <!-- Calendar background -->
  <rect x="16" y="24" width="96" height="88" rx="8" fill="#4285f4"/>

  <!-- Calendar header -->
  <rect x="16" y="24" width="96" height="24" rx="8" fill="#1967d2"/>
  <rect x="16" y="36" width="96" height="12" fill="#1967d2"/>

  <!-- Calendar rings -->
  <circle cx="36" cy="24" r="4" fill="#fff"/>
  <circle cx="64" cy="24" r="4" fill="#fff"/>
  <circle cx="92" cy="24" r="4" fill="#fff"/>

  <!-- Calendar grid -->
  <rect x="24" y="56" width="16" height="12" rx="2" fill="#fff" opacity="0.9"/>
  <rect x="44" y="56" width="16" height="12" rx="2" fill="#fff" opacity="0.9"/>
  <rect x="64" y="56" width="16" height="12" rx="2" fill="#fff" opacity="0.9"/>
  <rect x="84" y="56" width="16" height="12" rx="2" fill="#fff" opacity="0.9"/>

  <rect x="24" y="72" width="16" height="12" rx="2" fill="#fff" opacity="0.9"/>
  <rect x="44" y="72" width="16" height="12" rx="2" fill="#fff" opacity="0.9"/>
  <rect x="64" y="72" width="16" height="12" rx="2" fill="#fff" opacity="0.9"/>
  <rect x="84" y="72" width="16" height="12" rx="2" fill="#fff" opacity="0.9"/>

  <rect x="24" y="88" width="16" height="12" rx="2" fill="#fff" opacity="0.9"/>
  <rect x="44" y="88" width="16" height="12" rx="2" fill="#fff" opacity="0.9"/>
  <rect x="64" y="88" width="16" height="12" rx="2" fill="#34a853"/>
  <rect x="84" y="88" width="16" height="12" rx="2" fill="#fff" opacity="0.9"/>
</svg>
